<?xml version="1.0" encoding="utf-8"?>
<!-- Generator: Adobe Illustrator 26.0.2, SVG Export Plug-In . SVG Version: 6.00 Build 0)  -->
<svg version="1.1" id="レイヤー_1" xmlns="http://www.w3.org/2000/svg" xmlns:xlink="http://www.w3.org/1999/xlink" x="0px"
	 y="0px" viewBox="0 0 366.84 125.06" style="enable-background:new 0 0 366.84 125.06;" xml:space="preserve">
<style type="text/css">
	.st0{fill:none;}
	.st1{fill-rule:evenodd;clip-rule:evenodd;fill:#E61E1E;}
</style>
<g>
	<rect x="0" y="0" class="st0" width="366.84" height="125.06"/>
	<g>
		<g>
			<path class="st1" d="M299.62,66.39l4.17-14.4h0.07l4.17,14.4H299.62z M312.9,83.37h12.25l-12.63-41.69h-17.39l-12.63,41.69h12.24
				l2.24-7.72h13.7L312.9,83.37z"/>
			<path class="st1" d="M94.9,62.53c0-2.29,0.06-3.65,0.11-4.65c0.32-6.43,2.86-7.19,7.8-7.19c4.94,0,7.48,0.75,7.8,7.19
				c0.05,1,0.11,2.36,0.11,4.65c0,2.29-0.06,3.65-0.11,4.65c-0.32,6.43-2.86,7.19-7.8,7.19c-4.94,0-7.48-0.75-7.8-7.19
				C94.96,66.18,94.9,64.82,94.9,62.53z M102.81,84.13c12.57,0,18.65-2.21,19.51-13.56c0.21-2.7,0.25-5.47,0.25-8.04
				c0-2.56-0.04-5.34-0.25-8.04c-0.86-11.34-6.94-13.55-19.51-13.55c-12.57,0-18.65,2.21-19.51,13.55c-0.2,2.7-0.25,5.47-0.25,8.04
				c0,2.56,0.04,5.34,0.25,8.04C84.17,81.91,90.24,84.13,102.81,84.13z"/>
			<polygon class="st1" points="41.69,41.69 41.69,52.08 54.15,52.08 54.15,83.37 66.62,83.37 66.62,52.08 79.08,52.08 79.08,41.69 
							"/>
			<rect x="221.15" y="41.69" class="st1" width="11.83" height="41.69"/>
			<polygon class="st1" points="185.37,56.91 185.37,41.69 173.61,41.69 173.61,83.37 185.37,83.37 185.37,67.3 199.04,67.3 
				199.04,83.37 210.8,83.37 210.8,41.69 199.04,41.69 199.04,56.91 			"/>
			<path class="st1" d="M255.22,51.22h8.15c2.13,0,3.45,1.01,3.45,3.44c0,2.08-1.3,3.37-3.45,3.37h-8.15V51.22z M255.22,66.25h8.15
				c3.3,0,3.99,1.45,3.99,3.79c0,2.35-1.29,3.79-3.99,3.79h-8.15V66.25z M271.89,61.59c5.24-1.34,6.77-4.48,6.77-8.99
				c0-9.16-5.77-10.91-13.96-10.91h-21.24v41.69h22.3c10.26,0,13.71-4.42,13.71-11.22C279.48,67.42,278.39,63.23,271.89,61.59z"/>
			<path class="st1" d="M129.42,69.7h11.21c0.01,2.02,0.27,3.38,1.25,4.12c1.12,0.84,2.12,1.12,5.43,1.12c3.19,0,6.68,0,6.68-3.92
				c0-3.1-1.95-3.81-5.55-4c-8.93-0.48-12.16-0.73-15.5-3.2c-2.27-1.68-3.44-4.97-3.44-9.41c0-7.55,2.63-10.19,6.43-12.04
				c3.92-1.91,19.3-1.91,23.44,0c5.21,2.4,5.36,7.59,5.36,12.4h-11.19c-0.02-2.45-0.58-3.14-1.03-3.6c-1.16-1.03-2.81-1.24-5.2-1.24
				c-2.89,0-6.24,0.13-6.24,3.64c0,2.68,1.16,3.79,4.2,3.99c4.17,0.27,12.4,0.54,15.34,2.27c4.12,2.44,5.18,5.73,5.18,11.1
				c0,7.76-2.78,10.04-6.64,11.75c-4.46,1.97-19.36,1.97-24.2-0.15C129.53,80.15,129.42,75.44,129.42,69.7z"/>
		</g>
	</g>
</g>
</svg>
